<svg xmlns="http://www.w3.org/2000/svg" xmlns:xlink="http://www.w3.org/1999/xlink" width="375" zoomAndPan="magnify" viewBox="0 0 281.25 281.249989" height="375" preserveAspectRatio="xMidYMid meet" version="1.0"><path fill="#bc9c22" d="M 98.621094 86.652344 L 113.277344 86.652344 L 113.277344 136.921875 C 113.277344 150.011719 109.660156 159.699219 102.421875 165.988281 C 96.835938 171.042969 89.5 173.574219 80.425781 173.574219 C 70.65625 173.574219 63.410156 169.996094 58.699219 162.84375 L 61.1875 161.40625 C 63.015625 164.460938 65.417969 166.8125 68.386719 168.464844 C 71.355469 170.125 74.492188 170.953125 77.808594 170.953125 C 83.746094 170.953125 88.675781 169.125 92.605469 165.460938 C 96.617188 161.792969 98.621094 154.855469 98.621094 144.644531 Z M 98.621094 86.652344 " fill-opacity="1" fill-rule="nonzero"/><path fill="#bc9c22" d="M 175.324219 143.59375 L 199.679688 86.652344 L 214.464844 86.652344 L 214.464844 172.789062 L 199.679688 172.789062 L 199.679688 93.335938 L 168.78125 165.460938 L 136.707031 92.542969 L 136.707031 172.789062 L 134.089844 172.789062 L 134.089844 86.652344 L 150.195312 86.652344 Z M 175.324219 143.59375 " fill-opacity="1" fill-rule="nonzero"/><path fill="#ffffff" d="M 40.675781 125.886719 C 40.527344 125.886719 40.398438 125.835938 40.289062 125.734375 C 40.1875 125.625 40.136719 125.496094 40.136719 125.347656 C 40.136719 125.074219 40.261719 124.902344 40.511719 124.832031 C 41.476562 124.492188 42.535156 124.175781 43.679688 123.886719 C 44.824219 123.589844 46.015625 123.320312 47.253906 123.070312 C 48.5 122.820312 49.761719 122.597656 51.03125 122.402344 C 52.300781 122.199219 53.546875 122.035156 54.769531 121.898438 C 56 121.757812 57.171875 121.65625 58.289062 121.585938 C 59.402344 121.507812 60.417969 121.46875 61.339844 121.46875 C 63.925781 121.46875 65.945312 121.695312 67.40625 122.144531 C 68.867188 122.589844 69.671875 123.242188 69.8125 124.097656 L 69.824219 124.191406 C 69.824219 124.339844 69.769531 124.46875 69.660156 124.578125 C 69.558594 124.679688 69.433594 124.726562 69.285156 124.726562 C 69.152344 124.726562 69.03125 124.6875 68.925781 124.601562 C 68.824219 124.507812 68.765625 124.394531 68.75 124.261719 C 68.695312 123.933594 68.34375 123.640625 67.699219 123.382812 C 67.058594 123.121094 66.191406 122.914062 65.101562 122.765625 C 64.011719 122.617188 62.757812 122.542969 61.339844 122.542969 C 60.425781 122.542969 59.425781 122.578125 58.335938 122.648438 C 57.242188 122.71875 56.09375 122.824219 54.886719 122.964844 C 53.679688 123.105469 52.449219 123.273438 51.195312 123.464844 C 49.9375 123.652344 48.699219 123.871094 47.476562 124.121094 C 46.253906 124.371094 45.082031 124.640625 43.960938 124.925781 C 42.839844 125.214844 41.800781 125.523438 40.851562 125.851562 C 40.796875 125.875 40.738281 125.886719 40.675781 125.886719 Z M 36.984375 146.851562 C 36.824219 146.851562 36.695312 146.796875 36.597656 146.6875 C 36.496094 146.585938 36.445312 146.460938 36.445312 146.316406 C 36.445312 146.269531 36.449219 146.214844 36.46875 146.152344 C 37.019531 144.273438 39.242188 141.0625 43.128906 136.507812 C 43.183594 136.460938 43.203125 136.433594 43.1875 136.414062 C 43.179688 136.402344 43.140625 136.398438 43.070312 136.402344 C 42.292969 136.539062 41.527344 136.683594 40.78125 136.847656 C 40.039062 137.007812 39.335938 137.171875 38.664062 137.351562 C 38.609375 137.367188 38.5625 137.375 38.523438 137.375 C 38.367188 137.375 38.238281 137.324219 38.140625 137.222656 C 38.039062 137.121094 37.988281 136.996094 37.988281 136.835938 C 37.988281 136.71875 38.023438 136.613281 38.09375 136.507812 C 38.167969 136.410156 38.269531 136.347656 38.386719 136.324219 C 39.203125 136.089844 40.097656 135.875 41.074219 135.679688 C 42.054688 135.488281 43.085938 135.3125 44.171875 135.164062 C 44.277344 135.140625 44.367188 135.09375 44.4375 135.023438 C 45.738281 133.546875 47.179688 131.960938 48.761719 130.269531 C 50.34375 128.570312 52.050781 126.792969 53.882812 124.925781 C 53.992188 124.820312 54.121094 124.761719 54.269531 124.761719 C 54.414062 124.761719 54.539062 124.820312 54.640625 124.925781 C 54.75 125.027344 54.804688 125.15625 54.804688 125.300781 C 54.804688 125.425781 54.757812 125.550781 54.664062 125.675781 C 52.996094 127.375 51.441406 128.992188 50.003906 130.523438 C 48.566406 132.054688 47.238281 133.492188 46.015625 134.851562 C 45.976562 134.890625 45.960938 134.917969 45.96875 134.929688 C 45.984375 134.949219 46.027344 134.953125 46.097656 134.941406 C 47.585938 134.789062 49.019531 134.703125 50.398438 134.6875 C 51.777344 134.664062 53.019531 134.707031 54.117188 134.816406 C 54.257812 134.832031 54.375 134.894531 54.46875 135 C 54.566406 135.105469 54.617188 135.222656 54.617188 135.363281 C 54.617188 135.511719 54.5625 135.640625 54.457031 135.75 C 54.351562 135.851562 54.226562 135.902344 54.082031 135.902344 L 54.035156 135.902344 C 53.183594 135.808594 52.265625 135.761719 51.277344 135.761719 C 50.285156 135.753906 49.261719 135.785156 48.203125 135.855469 C 47.152344 135.917969 46.09375 136.011719 45.035156 136.136719 C 44.902344 136.167969 44.8125 136.21875 44.765625 136.289062 C 42.628906 138.742188 40.949219 140.820312 39.730469 142.527344 C 38.511719 144.226562 37.769531 145.539062 37.507812 146.46875 C 37.460938 146.574219 37.390625 146.664062 37.296875 146.734375 C 37.203125 146.8125 37.097656 146.851562 36.984375 146.851562 Z M 36.984375 146.851562 " fill-opacity="1" fill-rule="nonzero"/><path fill="#ffffff" d="M 59.300781 135.339844 C 59.148438 135.339844 59.023438 135.289062 58.914062 135.1875 C 58.8125 135.082031 58.761719 134.953125 58.761719 134.804688 C 58.761719 134.6875 58.800781 134.578125 58.878906 134.476562 L 59.753906 133.320312 C 59.863281 133.195312 60 133.132812 60.164062 133.132812 C 60.320312 133.132812 60.449219 133.1875 60.550781 133.296875 C 60.65625 133.398438 60.714844 133.523438 60.714844 133.667969 C 60.714844 133.785156 60.667969 133.898438 60.585938 134.007812 C 60.515625 134.078125 60.421875 134.199219 60.304688 134.371094 C 60.1875 134.535156 60.074219 134.683594 59.964844 134.816406 C 59.917969 134.886719 59.871094 134.949219 59.824219 135 C 59.785156 135.046875 59.753906 135.09375 59.730469 135.128906 C 59.621094 135.269531 59.476562 135.339844 59.300781 135.339844 Z M 54.964844 144.445312 C 54.332031 144.445312 53.839844 144.277344 53.492188 143.941406 C 53.132812 143.609375 52.953125 143.140625 52.953125 142.539062 C 52.953125 141.925781 53.320312 141.074219 54.050781 139.980469 C 54.777344 138.882812 55.796875 137.65625 57.113281 136.300781 C 57.222656 136.191406 57.351562 136.136719 57.5 136.136719 C 57.640625 136.136719 57.761719 136.191406 57.875 136.300781 C 57.992188 136.410156 58.050781 136.53125 58.050781 136.671875 C 58.050781 136.808594 58.003906 136.925781 57.910156 137.035156 L 57.898438 137.046875 C 57.132812 137.828125 56.460938 138.582031 55.875 139.3125 C 55.296875 140.039062 54.847656 140.683594 54.519531 141.242188 C 54.191406 141.804688 54.027344 142.234375 54.027344 142.539062 C 54.027344 142.839844 54.097656 143.050781 54.238281 143.183594 C 54.378906 143.308594 54.617188 143.371094 54.964844 143.371094 C 55.296875 143.371094 55.753906 143.289062 56.332031 143.125 C 56.914062 142.960938 57.574219 142.738281 58.304688 142.457031 C 59.046875 142.179688 59.820312 141.855469 60.632812 141.488281 C 61.449219 141.121094 62.269531 140.738281 63.097656 140.332031 C 63.921875 139.917969 64.710938 139.507812 65.457031 139.09375 C 66.207031 138.679688 66.878906 138.28125 67.480469 137.898438 C 67.597656 137.851562 67.691406 137.828125 67.761719 137.828125 C 67.902344 137.828125 68.023438 137.886719 68.136719 137.992188 C 68.242188 138.105469 68.300781 138.226562 68.300781 138.367188 C 68.300781 138.578125 68.210938 138.734375 68.042969 138.835938 C 67.441406 139.210938 66.757812 139.613281 65.984375 140.039062 C 65.214844 140.460938 64.402344 140.878906 63.554688 141.300781 C 62.703125 141.722656 61.851562 142.125 60.992188 142.503906 C 60.144531 142.878906 59.328125 143.214844 58.550781 143.511719 C 57.769531 143.800781 57.070312 144.023438 56.449219 144.1875 C 55.832031 144.359375 55.335938 144.445312 54.964844 144.445312 Z M 54.964844 144.445312 " fill-opacity="1" fill-rule="nonzero"/><path fill="#ffffff" d="M 93.792969 128.09375 C 93.9375 128.113281 94.0625 128.171875 94.167969 128.269531 C 94.265625 128.371094 94.320312 128.492188 94.320312 128.632812 C 94.320312 128.789062 94.261719 128.921875 94.15625 129.03125 C 94.050781 129.132812 93.925781 129.179688 93.78125 129.179688 L 93.746094 129.179688 C 90.933594 129.0625 88.042969 129.007812 85.074219 129.007812 C 82.109375 129.007812 79.140625 129.074219 76.15625 129.203125 C 73.375 132.472656 70.628906 135.796875 67.929688 139.1875 C 65.234375 142.574219 62.640625 145.976562 60.15625 149.390625 C 57.671875 152.800781 55.347656 156.191406 53.191406 159.558594 C 53.285156 159.699219 53.265625 159.882812 53.132812 160.117188 C 52.671875 160.890625 52.261719 161.273438 51.902344 161.273438 C 51.664062 161.273438 51.5 161.199219 51.414062 161.054688 C 51.320312 160.914062 51.316406 160.71875 51.402344 160.46875 L 51.402344 160.445312 C 51.457031 160.28125 51.550781 160.101562 51.683594 159.90625 C 53.828125 156.519531 56.140625 153.101562 58.625 149.65625 C 61.109375 146.214844 63.707031 142.78125 66.421875 139.359375 C 69.132812 135.933594 71.890625 132.566406 74.695312 129.261719 C 71.859375 129.398438 69.078125 129.578125 66.363281 129.8125 C 63.644531 130.039062 61.042969 130.3125 58.566406 130.628906 L 58.496094 130.628906 C 58.351562 130.628906 58.222656 130.582031 58.121094 130.480469 C 58.015625 130.371094 57.957031 130.242188 57.957031 130.09375 C 57.957031 129.953125 58.003906 129.832031 58.097656 129.730469 C 58.191406 129.621094 58.304688 129.5625 58.4375 129.554688 C 61.085938 129.214844 63.867188 128.925781 66.769531 128.691406 C 69.675781 128.457031 72.628906 128.277344 75.628906 128.140625 C 77.453125 126.03125 79.316406 123.90625 81.214844 121.757812 C 83.125 119.609375 85.078125 117.453125 87.082031 115.285156 C 87.175781 115.160156 87.308594 115.097656 87.480469 115.097656 C 87.628906 115.097656 87.753906 115.152344 87.855469 115.261719 C 87.964844 115.363281 88.019531 115.492188 88.019531 115.648438 C 88.019531 115.796875 87.964844 115.914062 87.867188 115.996094 C 86.097656 117.921875 84.3125 119.898438 82.515625 121.921875 C 80.714844 123.941406 78.910156 125.996094 77.101562 128.082031 C 79.875 127.984375 82.664062 127.929688 85.472656 127.929688 C 88.28125 127.929688 91.058594 127.984375 93.792969 128.09375 Z M 93.792969 128.09375 " fill-opacity="1" fill-rule="nonzero"/><path fill="#ffffff" d="M 74.449219 144.023438 C 74.222656 144.023438 74.046875 143.941406 73.921875 143.777344 C 73.792969 143.609375 73.746094 143.402344 73.792969 143.160156 C 73.828125 142.996094 73.964844 142.722656 74.214844 142.328125 C 74.464844 141.933594 74.796875 141.453125 75.207031 140.890625 C 75.625 140.332031 76.097656 139.71875 76.632812 139.058594 C 77.179688 138.398438 77.761719 137.726562 78.386719 137.046875 C 79.011719 136.367188 79.652344 135.71875 80.316406 135.09375 C 80.976562 134.464844 81.640625 133.898438 82.304688 133.402344 C 82.410156 133.332031 82.519531 133.296875 82.628906 133.296875 C 82.777344 133.296875 82.902344 133.351562 83.003906 133.457031 C 83.113281 133.5625 83.167969 133.6875 83.167969 133.832031 C 83.167969 134.015625 83.097656 134.15625 82.957031 134.265625 C 82.28125 134.773438 81.601562 135.347656 80.921875 135.984375 C 80.25 136.625 79.609375 137.277344 78.996094 137.945312 C 78.378906 138.617188 77.820312 139.257812 77.324219 139.863281 C 76.832031 140.464844 76.429688 140.984375 76.121094 141.417969 C 76.058594 141.503906 76.042969 141.566406 76.074219 141.605469 C 76.105469 141.644531 76.175781 141.628906 76.285156 141.558594 C 78.042969 140.289062 79.566406 139.253906 80.855469 138.449219 C 82.140625 137.648438 83.226562 137.054688 84.113281 136.671875 C 85.007812 136.285156 85.738281 136.089844 86.300781 136.089844 C 86.6875 136.089844 86.992188 136.1875 87.210938 136.378906 C 87.4375 136.578125 87.550781 136.847656 87.550781 137.199219 C 87.550781 137.511719 87.496094 137.921875 87.386719 138.425781 C 87.277344 138.933594 87.164062 139.441406 87.046875 139.945312 C 86.945312 140.375 86.851562 140.769531 86.769531 141.125 C 86.6875 141.476562 86.652344 141.726562 86.652344 141.875 C 86.652344 142.015625 86.691406 142.117188 86.777344 142.179688 C 86.863281 142.234375 87.015625 142.257812 87.234375 142.257812 C 87.800781 142.257812 88.472656 142.160156 89.246094 141.957031 C 90.015625 141.753906 90.859375 141.460938 91.769531 141.078125 C 92.679688 140.699219 93.632812 140.242188 94.621094 139.710938 C 95.617188 139.175781 96.613281 138.578125 97.613281 137.921875 C 97.707031 137.863281 97.804688 137.828125 97.917969 137.828125 C 98.0625 137.828125 98.1875 137.886719 98.292969 137.992188 C 98.398438 138.097656 98.457031 138.222656 98.457031 138.367188 C 98.457031 138.578125 98.367188 138.726562 98.199219 138.8125 C 97.144531 139.507812 96.101562 140.132812 95.066406 140.695312 C 94.027344 141.25 93.03125 141.722656 92.074219 142.121094 C 91.117188 142.515625 90.222656 142.820312 89.398438 143.03125 C 88.578125 143.234375 87.859375 143.335938 87.234375 143.335938 C 86.722656 143.335938 86.316406 143.207031 86.019531 142.949219 C 85.722656 142.691406 85.574219 142.335938 85.574219 141.875 C 85.574219 141.664062 85.617188 141.355469 85.703125 140.949219 C 85.796875 140.546875 85.894531 140.125 85.996094 139.6875 C 86.113281 139.191406 86.222656 138.71875 86.324219 138.273438 C 86.421875 137.828125 86.476562 137.542969 86.476562 137.410156 C 86.476562 137.253906 86.394531 137.175781 86.230469 137.175781 C 85.894531 137.175781 85.476562 137.273438 84.980469 137.46875 C 84.480469 137.664062 83.929688 137.921875 83.332031 138.25 C 82.730469 138.570312 82.105469 138.933594 81.460938 139.335938 C 80.820312 139.742188 80.179688 140.160156 79.542969 140.589844 C 78.914062 141.019531 78.3125 141.4375 77.746094 141.839844 C 77.175781 142.234375 76.671875 142.59375 76.238281 142.914062 C 76.167969 142.96875 76.101562 143.019531 76.039062 143.066406 C 75.96875 143.105469 75.902344 143.152344 75.839844 143.207031 C 75.414062 143.527344 75.101562 143.742188 74.90625 143.859375 C 74.710938 143.96875 74.558594 144.023438 74.449219 144.023438 Z M 74.449219 144.023438 " fill-opacity="1" fill-rule="nonzero"/><path fill="#ffffff" d="M 111.820312 137.828125 C 111.96875 137.828125 112.09375 137.886719 112.195312 137.992188 C 112.304688 138.097656 112.359375 138.222656 112.359375 138.367188 C 112.359375 138.554688 112.285156 138.699219 112.136719 138.800781 C 111.179688 139.5 110.164062 140.140625 109.097656 140.71875 C 108.03125 141.296875 106.964844 141.804688 105.90625 142.246094 C 104.847656 142.6875 103.84375 143.050781 102.894531 143.347656 C 101.949219 143.644531 101.105469 143.867188 100.367188 144.011719 C 99.625 144.167969 99.046875 144.246094 98.625 144.246094 C 97.574219 144.246094 96.757812 144.054688 96.171875 143.675781 C 95.589844 143.285156 95.296875 142.734375 95.296875 142.027344 C 95.296875 141.550781 95.421875 141.054688 95.667969 140.53125 C 95.914062 140 96.238281 139.484375 96.640625 138.976562 C 97.050781 138.46875 97.507812 138.011719 98.007812 137.597656 C 98.511719 137.183594 99.027344 136.855469 99.550781 136.613281 C 100.070312 136.367188 100.570312 136.242188 101.046875 136.242188 C 101.457031 136.242188 101.792969 136.355469 102.050781 136.578125 C 102.308594 136.796875 102.4375 137.089844 102.4375 137.445312 C 102.4375 137.695312 102.347656 137.941406 102.167969 138.179688 C 101.996094 138.421875 101.761719 138.648438 101.464844 138.859375 C 101.167969 139.0625 100.851562 139.226562 100.507812 139.347656 C 100.164062 139.476562 99.820312 139.535156 99.46875 139.535156 C 98.78125 139.535156 98.230469 139.449219 97.808594 139.269531 C 97.355469 139.757812 97.003906 140.25 96.746094 140.742188 C 96.492188 141.226562 96.371094 141.652344 96.371094 142.027344 C 96.371094 142.792969 97.121094 143.171875 98.625 143.171875 C 99.015625 143.171875 99.5625 143.101562 100.261719 142.960938 C 100.964844 142.816406 101.761719 142.597656 102.660156 142.316406 C 103.554688 142.03125 104.507812 141.675781 105.523438 141.253906 C 106.535156 140.828125 107.550781 140.335938 108.574219 139.78125 C 109.601562 139.230469 110.578125 138.613281 111.507812 137.933594 C 111.582031 137.863281 111.6875 137.828125 111.820312 137.828125 Z M 101.363281 137.445312 C 101.363281 137.398438 101.339844 137.367188 101.304688 137.351562 C 101.269531 137.328125 101.1875 137.316406 101.046875 137.316406 C 100.734375 137.316406 100.371094 137.414062 99.960938 137.609375 C 99.554688 137.796875 99.136719 138.0625 98.707031 138.414062 C 98.917969 138.445312 99.171875 138.460938 99.46875 138.460938 C 99.847656 138.460938 100.179688 138.398438 100.460938 138.273438 C 100.742188 138.152344 100.957031 138.011719 101.117188 137.851562 C 101.28125 137.691406 101.363281 137.554688 101.363281 137.445312 Z M 101.363281 137.445312 " fill-opacity="1" fill-rule="nonzero"/><path fill="#ffffff" d="M 129.648438 137.828125 C 129.804688 137.828125 129.933594 137.886719 130.035156 137.992188 C 130.132812 138.097656 130.1875 138.222656 130.1875 138.367188 C 130.1875 138.640625 130.0625 138.8125 129.8125 138.882812 C 128.785156 139.21875 127.679688 139.558594 126.503906 139.910156 C 125.335938 140.261719 124.160156 140.613281 122.988281 140.960938 C 121.847656 141.296875 120.746094 141.625 119.679688 141.945312 C 118.617188 142.257812 117.644531 142.558594 116.757812 142.84375 C 116.710938 142.875 116.683594 142.898438 116.675781 142.914062 C 116.324219 143.40625 115.886719 143.90625 115.367188 144.421875 C 114.851562 144.9375 114.285156 145.410156 113.671875 145.847656 C 113.066406 146.28125 112.445312 146.632812 111.8125 146.898438 C 111.183594 147.171875 110.582031 147.308594 110.015625 147.308594 C 109.601562 147.308594 109.277344 147.214844 109.042969 147.027344 C 108.808594 146.839844 108.691406 146.597656 108.691406 146.292969 C 108.691406 145.910156 108.996094 145.480469 109.605469 145.007812 C 110.210938 144.53125 111.066406 144.035156 112.164062 143.523438 C 113.261719 143 114.539062 142.488281 116 141.980469 L 116.089844 141.921875 C 116.191406 141.78125 116.277344 141.640625 116.347656 141.5 C 116.425781 141.359375 116.449219 141.261719 116.417969 141.207031 C 116.378906 141.136719 116.246094 141.113281 116.019531 141.136719 C 115.800781 141.160156 115.535156 141.203125 115.214844 141.253906 C 114.894531 141.308594 114.570312 141.367188 114.246094 141.417969 C 113.851562 141.488281 113.457031 141.550781 113.054688 141.605469 C 112.648438 141.660156 112.277344 141.6875 111.941406 141.6875 C 111.371094 141.6875 110.929688 141.578125 110.621094 141.359375 C 110.308594 141.144531 110.152344 140.832031 110.152344 140.425781 C 110.152344 140.011719 110.292969 139.578125 110.574219 139.117188 C 110.855469 138.648438 111.230469 138.191406 111.695312 137.738281 C 112.171875 137.277344 112.695312 136.867188 113.261719 136.496094 C 113.828125 136.132812 114.410156 135.835938 114.992188 135.609375 C 115.582031 135.382812 116.132812 135.269531 116.640625 135.269531 C 117.0625 135.269531 117.394531 135.382812 117.644531 135.597656 C 117.894531 135.808594 118.019531 136.09375 118.019531 136.449219 C 118.019531 136.5625 118.007812 136.667969 117.984375 136.765625 C 117.890625 137.164062 117.695312 137.5625 117.402344 137.957031 C 117.109375 138.351562 116.796875 138.644531 116.464844 138.847656 C 116.363281 138.894531 116.265625 138.917969 116.171875 138.917969 C 116.023438 138.917969 115.894531 138.867188 115.789062 138.765625 C 115.683594 138.664062 115.636719 138.539062 115.636719 138.378906 C 115.636719 138.167969 115.722656 138.015625 115.90625 137.921875 C 116.074219 137.824219 116.238281 137.6875 116.394531 137.515625 C 116.558594 137.34375 116.691406 137.167969 116.792969 136.988281 C 116.890625 136.800781 116.945312 136.644531 116.945312 136.507812 C 116.945312 136.457031 116.914062 136.414062 116.851562 136.390625 C 116.785156 136.363281 116.71875 136.347656 116.640625 136.347656 C 116.257812 136.347656 115.824219 136.4375 115.34375 136.625 C 114.867188 136.8125 114.390625 137.058594 113.917969 137.363281 C 113.441406 137.667969 113 138 112.597656 138.355469 C 112.191406 138.707031 111.863281 139.058594 111.617188 139.40625 C 111.363281 139.753906 111.242188 140.054688 111.242188 140.320312 C 111.242188 140.429688 111.289062 140.507812 111.394531 140.554688 C 111.5 140.59375 111.683594 140.613281 111.941406 140.613281 C 112.238281 140.613281 112.566406 140.589844 112.9375 140.542969 C 113.300781 140.488281 113.679688 140.425781 114.070312 140.355469 C 114.425781 140.300781 114.78125 140.25 115.132812 140.203125 C 115.488281 140.148438 115.8125 140.121094 116.089844 140.121094 C 116.550781 140.121094 116.902344 140.214844 117.144531 140.402344 C 117.382812 140.582031 117.492188 140.84375 117.472656 141.183594 C 117.453125 141.226562 117.441406 141.273438 117.4375 141.335938 C 117.4375 141.390625 117.425781 141.449219 117.402344 141.5 C 118.195312 141.25 119.039062 140.996094 119.9375 140.730469 C 120.832031 140.457031 121.75 140.1875 122.695312 139.921875 C 123.871094 139.570312 125.039062 139.226562 126.203125 138.882812 C 127.363281 138.539062 128.453125 138.199219 129.472656 137.851562 C 129.535156 137.839844 129.59375 137.828125 129.648438 137.828125 Z M 110.222656 146.234375 C 110.589844 146.234375 111.023438 146.121094 111.535156 145.894531 C 112.046875 145.675781 112.585938 145.363281 113.144531 144.960938 C 113.707031 144.554688 114.25 144.089844 114.78125 143.570312 C 114.144531 143.824219 113.523438 144.097656 112.925781 144.386719 C 112.332031 144.671875 111.792969 144.949219 111.3125 145.203125 C 110.835938 145.46875 110.460938 145.695312 110.1875 145.882812 C 110.058594 145.957031 109.992188 146.039062 109.992188 146.128906 C 109.992188 146.199219 110.070312 146.234375 110.222656 146.234375 Z M 110.222656 146.234375 " fill-opacity="1" fill-rule="nonzero"/><path fill="#ffffff" d="M 147.496094 137.828125 C 147.648438 137.828125 147.777344 137.886719 147.882812 137.992188 C 147.980469 138.097656 148.03125 138.222656 148.03125 138.367188 C 148.03125 138.640625 147.90625 138.8125 147.660156 138.882812 C 146.628906 139.21875 145.527344 139.558594 144.351562 139.910156 C 143.183594 140.261719 142.007812 140.613281 140.832031 140.960938 C 139.695312 141.296875 138.59375 141.625 137.527344 141.945312 C 136.464844 142.257812 135.492188 142.558594 134.605469 142.84375 C 134.558594 142.875 134.527344 142.898438 134.523438 142.914062 C 134.171875 143.40625 133.734375 143.90625 133.214844 144.421875 C 132.699219 144.9375 132.132812 145.410156 131.519531 145.847656 C 130.910156 146.28125 130.292969 146.632812 129.660156 146.898438 C 129.027344 147.171875 128.425781 147.308594 127.859375 147.308594 C 127.449219 147.308594 127.125 147.214844 126.890625 147.027344 C 126.65625 146.839844 126.539062 146.597656 126.539062 146.292969 C 126.539062 145.910156 126.84375 145.480469 127.449219 145.007812 C 128.058594 144.53125 128.910156 144.035156 130.011719 143.523438 C 131.109375 143 132.386719 142.488281 133.84375 141.980469 L 133.9375 141.921875 C 134.035156 141.78125 134.125 141.640625 134.195312 141.5 C 134.269531 141.359375 134.292969 141.261719 134.265625 141.207031 C 134.222656 141.136719 134.09375 141.113281 133.867188 141.136719 C 133.648438 141.160156 133.378906 141.203125 133.0625 141.253906 C 132.738281 141.308594 132.417969 141.367188 132.089844 141.417969 C 131.699219 141.488281 131.300781 141.550781 130.898438 141.605469 C 130.492188 141.660156 130.121094 141.6875 129.789062 141.6875 C 129.21875 141.6875 128.777344 141.578125 128.46875 141.359375 C 128.15625 141.144531 128 140.832031 128 140.425781 C 128 140.011719 128.140625 139.578125 128.421875 139.117188 C 128.703125 138.648438 129.074219 138.191406 129.542969 137.738281 C 130.015625 137.277344 130.539062 136.867188 131.109375 136.496094 C 131.675781 136.132812 132.253906 135.835938 132.839844 135.609375 C 133.429688 135.382812 133.980469 135.269531 134.488281 135.269531 C 134.90625 135.269531 135.242188 135.382812 135.492188 135.597656 C 135.742188 135.808594 135.867188 136.09375 135.867188 136.449219 C 135.867188 136.5625 135.855469 136.667969 135.832031 136.765625 C 135.738281 137.164062 135.542969 137.5625 135.246094 137.957031 C 134.957031 138.351562 134.644531 138.644531 134.3125 138.847656 C 134.210938 138.894531 134.113281 138.917969 134.019531 138.917969 C 133.871094 138.917969 133.742188 138.867188 133.632812 138.765625 C 133.53125 138.664062 133.480469 138.539062 133.480469 138.378906 C 133.480469 138.167969 133.570312 138.015625 133.75 137.921875 C 133.921875 137.824219 134.082031 137.6875 134.242188 137.515625 C 134.40625 137.34375 134.535156 137.167969 134.640625 136.988281 C 134.738281 136.800781 134.789062 136.644531 134.789062 136.507812 C 134.789062 136.457031 134.757812 136.414062 134.699219 136.390625 C 134.632812 136.363281 134.5625 136.347656 134.488281 136.347656 C 134.105469 136.347656 133.671875 136.4375 133.191406 136.625 C 132.714844 136.8125 132.238281 137.058594 131.765625 137.363281 C 131.289062 137.667969 130.847656 138 130.441406 138.355469 C 130.035156 138.707031 129.710938 139.058594 129.460938 139.40625 C 129.210938 139.753906 129.085938 140.054688 129.085938 140.320312 C 129.085938 140.429688 129.136719 140.507812 129.238281 140.554688 C 129.347656 140.59375 129.53125 140.613281 129.789062 140.613281 C 130.082031 140.613281 130.414062 140.589844 130.78125 140.542969 C 131.148438 140.488281 131.523438 140.425781 131.914062 140.355469 C 132.273438 140.300781 132.628906 140.25 132.980469 140.203125 C 133.335938 140.148438 133.65625 140.121094 133.9375 140.121094 C 134.394531 140.121094 134.746094 140.214844 134.988281 140.402344 C 135.230469 140.582031 135.339844 140.84375 135.316406 141.183594 C 135.300781 141.226562 135.289062 141.273438 135.28125 141.335938 C 135.28125 141.390625 135.269531 141.449219 135.246094 141.5 C 136.042969 141.25 136.886719 140.996094 137.78125 140.730469 C 138.675781 140.457031 139.597656 140.1875 140.542969 139.921875 C 141.714844 139.570312 142.882812 139.226562 144.046875 138.882812 C 145.207031 138.539062 146.296875 138.199219 147.320312 137.851562 C 147.382812 137.839844 147.441406 137.828125 147.496094 137.828125 Z M 128.070312 146.234375 C 128.4375 146.234375 128.871094 146.121094 129.378906 145.894531 C 129.894531 145.675781 130.429688 145.363281 130.992188 144.960938 C 131.554688 144.554688 132.097656 144.089844 132.628906 143.570312 C 131.988281 143.824219 131.371094 144.097656 130.769531 144.386719 C 130.175781 144.671875 129.640625 144.949219 129.15625 145.203125 C 128.679688 145.46875 128.308594 145.695312 128.035156 145.882812 C 127.902344 145.957031 127.835938 146.039062 127.835938 146.128906 C 127.835938 146.199219 127.914062 146.234375 128.070312 146.234375 Z M 128.070312 146.234375 " fill-opacity="1" fill-rule="nonzero"/><path fill="#ffffff" d="M 187.429688 137.304688 C 187.578125 137.304688 187.703125 137.359375 187.804688 137.46875 C 187.914062 137.570312 187.96875 137.695312 187.96875 137.839844 C 187.96875 138.117188 187.84375 138.285156 187.59375 138.355469 C 185.332031 139.144531 183.242188 139.859375 181.316406 140.507812 C 179.402344 141.144531 177.640625 141.730469 176.046875 142.257812 L 174.550781 142.738281 C 174.550781 142.738281 174.550781 142.746094 174.550781 142.75 C 174.589844 142.921875 174.609375 143.132812 174.609375 143.382812 C 174.609375 143.890625 174.449219 144.394531 174.128906 144.902344 C 173.808594 145.414062 173.371094 145.894531 172.808594 146.339844 C 172.25 146.789062 171.605469 147.191406 170.882812 147.542969 C 170.15625 147.894531 169.386719 148.164062 168.566406 148.359375 C 167.753906 148.5625 166.9375 148.664062 166.113281 148.664062 C 165.097656 148.664062 164.304688 148.527344 163.726562 148.253906 C 163.148438 147.988281 162.863281 147.613281 162.863281 147.121094 C 162.863281 146.855469 162.945312 146.597656 163.109375 146.351562 C 163.277344 146.109375 163.578125 145.855469 164.007812 145.589844 C 164.433594 145.332031 165.039062 145.042969 165.808594 144.714844 C 166.585938 144.386719 167.578125 144.007812 168.777344 143.582031 C 169.984375 143.152344 171.445312 142.644531 173.160156 142.0625 C 172.847656 141.515625 172.355469 140.960938 171.675781 140.390625 C 171 139.8125 170.125 139.230469 169.058594 138.636719 C 168.308594 138.214844 167.613281 137.789062 166.976562 137.351562 C 166.347656 136.914062 165.804688 136.445312 165.351562 135.9375 C 164.898438 135.421875 164.574219 134.859375 164.382812 134.242188 C 164.1875 133.621094 164.160156 132.914062 164.300781 132.125 C 164.441406 131.339844 164.761719 130.558594 165.257812 129.789062 C 165.765625 129.019531 166.40625 128.28125 167.1875 127.578125 C 167.972656 126.871094 168.851562 126.199219 169.828125 125.570312 C 170.800781 124.9375 171.832031 124.367188 172.914062 123.851562 C 174.003906 123.335938 175.105469 122.894531 176.222656 122.519531 C 177.335938 122.144531 178.425781 121.863281 179.496094 121.667969 C 180.5625 121.464844 181.554688 121.363281 182.476562 121.363281 C 183.621094 121.363281 184.574219 121.535156 185.339844 121.875 C 186.109375 122.222656 186.664062 122.710938 187 123.347656 C 187.339844 123.980469 187.433594 124.738281 187.277344 125.628906 C 187.09375 126.769531 186.589844 127.882812 185.769531 128.972656 C 184.953125 130.054688 183.859375 131.058594 182.5 131.972656 C 182.417969 132.042969 182.316406 132.078125 182.183594 132.078125 C 182.035156 132.078125 181.90625 132.03125 181.796875 131.929688 C 181.695312 131.820312 181.644531 131.691406 181.644531 131.542969 C 181.644531 131.355469 181.726562 131.203125 181.890625 131.085938 C 183.136719 130.246094 184.125 129.34375 184.859375 128.375 C 185.589844 127.410156 186.046875 126.433594 186.226562 125.453125 C 186.394531 124.472656 186.160156 123.722656 185.515625 123.207031 C 184.875 122.695312 183.859375 122.4375 182.476562 122.4375 C 181.585938 122.4375 180.632812 122.535156 179.625 122.730469 C 178.609375 122.917969 177.574219 123.183594 176.515625 123.523438 C 175.460938 123.871094 174.425781 124.277344 173.40625 124.75 C 172.382812 125.226562 171.414062 125.753906 170.496094 126.328125 C 169.582031 126.898438 168.761719 127.511719 168.03125 128.164062 C 167.304688 128.820312 166.707031 129.492188 166.242188 130.1875 C 165.773438 130.882812 165.472656 131.585938 165.339844 132.300781 C 165.199219 133.136719 165.285156 133.855469 165.597656 134.464844 C 165.90625 135.066406 166.40625 135.617188 167.09375 136.125 C 167.785156 136.632812 168.621094 137.160156 169.59375 137.714844 C 171.980469 139.046875 173.511719 140.382812 174.1875 141.722656 L 174.1875 141.734375 C 174.1875 141.734375 174.191406 141.734375 174.199219 141.734375 C 174.207031 141.734375 174.210938 141.734375 174.210938 141.734375 L 175.707031 141.230469 C 177.304688 140.703125 179.0625 140.117188 180.980469 139.476562 C 182.902344 138.832031 184.992188 138.121094 187.242188 137.339844 C 187.304688 137.316406 187.367188 137.304688 187.429688 137.304688 Z M 166.113281 147.589844 C 166.789062 147.589844 167.480469 147.507812 168.179688 147.34375 C 168.882812 147.179688 169.550781 146.953125 170.191406 146.664062 C 170.828125 146.375 171.402344 146.050781 171.910156 145.683594 C 172.414062 145.324219 172.8125 144.949219 173.101562 144.550781 C 173.386719 144.152344 173.535156 143.765625 173.535156 143.382812 C 173.535156 143.335938 173.535156 143.289062 173.535156 143.242188 C 173.535156 143.195312 173.527344 143.148438 173.523438 143.101562 C 171.707031 143.707031 170.179688 144.234375 168.941406 144.679688 C 167.707031 145.125 166.726562 145.496094 165.996094 145.800781 C 165.261719 146.109375 164.738281 146.375 164.417969 146.585938 C 164.097656 146.792969 163.9375 146.972656 163.9375 147.121094 C 163.9375 147.183594 164.042969 147.25 164.253906 147.320312 C 164.46875 147.390625 164.75 147.453125 165.085938 147.507812 C 165.417969 147.558594 165.761719 147.589844 166.113281 147.589844 Z M 166.113281 147.589844 " fill-opacity="1" fill-rule="nonzero"/><path fill="#ffffff" d="M 213.011719 128.09375 C 213.15625 128.113281 213.28125 128.171875 213.386719 128.269531 C 213.484375 128.371094 213.539062 128.492188 213.539062 128.632812 C 213.539062 128.789062 213.480469 128.921875 213.375 129.03125 C 213.269531 129.132812 213.144531 129.179688 213 129.179688 L 212.964844 129.179688 C 210.152344 129.0625 207.261719 129.007812 204.292969 129.007812 C 201.328125 129.007812 198.359375 129.074219 195.375 129.203125 C 192.59375 132.472656 189.847656 135.796875 187.148438 139.1875 C 184.453125 142.574219 181.859375 145.976562 179.375 149.390625 C 176.890625 152.800781 174.566406 156.191406 172.410156 159.558594 C 172.503906 159.699219 172.484375 159.882812 172.351562 160.117188 C 171.890625 160.890625 171.480469 161.273438 171.121094 161.273438 C 170.882812 161.273438 170.71875 161.199219 170.632812 161.054688 C 170.539062 160.914062 170.535156 160.71875 170.621094 160.46875 L 170.621094 160.445312 C 170.675781 160.28125 170.769531 160.101562 170.902344 159.90625 C 173.046875 156.519531 175.359375 153.101562 177.84375 149.65625 C 180.328125 146.214844 182.925781 142.78125 185.640625 139.359375 C 188.351562 135.933594 191.109375 132.566406 193.914062 129.261719 C 191.078125 129.398438 188.296875 129.578125 185.582031 129.8125 C 182.863281 130.039062 180.261719 130.3125 177.785156 130.628906 L 177.714844 130.628906 C 177.570312 130.628906 177.441406 130.582031 177.339844 130.480469 C 177.234375 130.371094 177.175781 130.242188 177.175781 130.09375 C 177.175781 129.953125 177.222656 129.832031 177.316406 129.730469 C 177.410156 129.621094 177.523438 129.5625 177.65625 129.554688 C 180.304688 129.214844 183.085938 128.925781 185.988281 128.691406 C 188.894531 128.457031 191.847656 128.277344 194.847656 128.140625 C 196.671875 126.03125 198.535156 123.90625 200.433594 121.757812 C 202.34375 119.609375 204.296875 117.453125 206.300781 115.285156 C 206.394531 115.160156 206.527344 115.097656 206.699219 115.097656 C 206.847656 115.097656 206.972656 115.152344 207.074219 115.261719 C 207.183594 115.363281 207.238281 115.492188 207.238281 115.648438 C 207.238281 115.796875 207.183594 115.914062 207.085938 115.996094 C 205.316406 117.921875 203.53125 119.898438 201.734375 121.921875 C 199.933594 123.941406 198.128906 125.996094 196.320312 128.082031 C 199.09375 127.984375 201.882812 127.929688 204.691406 127.929688 C 207.5 127.929688 210.277344 127.984375 213.011719 128.09375 Z M 213.011719 128.09375 " fill-opacity="1" fill-rule="nonzero"/><path fill="#ffffff" d="M 211.761719 137.828125 C 211.898438 137.828125 212.023438 137.886719 212.132812 137.992188 C 212.242188 138.105469 212.296875 138.226562 212.296875 138.367188 C 212.296875 138.578125 212.203125 138.738281 212.015625 138.847656 C 211.128906 139.355469 210.148438 139.71875 209.070312 139.945312 C 208.003906 140.164062 206.902344 140.242188 205.765625 140.179688 C 204.625 140.109375 203.496094 139.90625 202.375 139.570312 C 201.257812 139.230469 200.199219 138.753906 199.195312 138.144531 C 199.265625 138.707031 199.242188 139.289062 199.125 139.898438 C 199.015625 140.5 198.828125 141.078125 198.566406 141.640625 C 198.300781 142.203125 197.984375 142.710938 197.617188 143.160156 C 197.25 143.613281 196.859375 143.964844 196.4375 144.222656 C 196.015625 144.484375 195.585938 144.621094 195.152344 144.621094 C 194.726562 144.621094 194.378906 144.460938 194.113281 144.152344 C 193.847656 143.84375 193.714844 143.425781 193.714844 142.902344 C 193.714844 142.269531 193.894531 141.613281 194.253906 140.925781 C 194.601562 140.242188 195.09375 139.578125 195.726562 138.929688 C 196.355469 138.273438 197.082031 137.703125 197.898438 137.210938 C 197.921875 137.1875 197.945312 137.160156 197.96875 137.128906 C 198.015625 136.949219 198.125 136.820312 198.296875 136.730469 C 198.464844 136.636719 198.640625 136.613281 198.820312 136.660156 C 198.867188 136.671875 198.90625 136.671875 198.9375 136.660156 C 199.085938 136.585938 199.242188 136.515625 199.40625 136.449219 C 199.574219 136.390625 199.746094 136.332031 199.910156 136.277344 C 199.992188 136.253906 200.054688 136.242188 200.097656 136.242188 C 200.234375 136.242188 200.359375 136.296875 200.46875 136.402344 C 200.578125 136.515625 200.632812 136.636719 200.632812 136.777344 C 200.632812 137.054688 200.507812 137.226562 200.257812 137.304688 C 200.226562 137.3125 200.195312 137.320312 200.164062 137.328125 C 200.132812 137.335938 200.109375 137.347656 200.085938 137.363281 C 200.066406 137.363281 200.054688 137.367188 200.050781 137.375 C 200.960938 137.898438 201.914062 138.304688 202.914062 138.589844 C 203.917969 138.878906 204.925781 139.050781 205.941406 139.105469 C 206.960938 139.152344 207.941406 139.078125 208.886719 138.882812 C 209.824219 138.6875 210.695312 138.367188 211.492188 137.921875 C 211.566406 137.863281 211.65625 137.828125 211.761719 137.828125 Z M 195.152344 143.546875 C 195.441406 143.546875 195.738281 143.4375 196.039062 143.21875 C 196.34375 143 196.628906 142.710938 196.90625 142.339844 C 197.175781 141.96875 197.410156 141.550781 197.605469 141.089844 C 197.808594 140.632812 197.957031 140.164062 198.050781 139.6875 C 198.148438 139.207031 198.179688 138.75 198.132812 138.320312 C 197.476562 138.75 196.894531 139.230469 196.390625 139.757812 C 195.890625 140.289062 195.503906 140.828125 195.222656 141.371094 C 194.9375 141.917969 194.789062 142.429688 194.789062 142.902344 C 194.789062 143.332031 194.914062 143.546875 195.152344 143.546875 Z M 195.152344 143.546875 " fill-opacity="1" fill-rule="nonzero"/><path fill="#ffffff" d="M 211.09375 151.363281 C 210.453125 151.363281 209.96875 151.195312 209.632812 150.863281 C 209.292969 150.527344 209.121094 150.054688 209.121094 149.449219 C 209.121094 148.980469 209.257812 148.460938 209.527344 147.894531 C 209.792969 147.324219 210.160156 146.726562 210.628906 146.105469 C 211.101562 145.480469 211.636719 144.832031 212.238281 144.164062 C 212.839844 143.503906 213.46875 142.839844 214.132812 142.167969 C 214.800781 141.488281 215.472656 140.820312 216.144531 140.167969 C 216.882812 139.453125 217.585938 138.757812 218.246094 138.085938 C 218.90625 137.410156 219.5 136.777344 220.011719 136.195312 C 220.527344 135.609375 220.929688 135.089844 221.226562 134.628906 C 221.53125 134.160156 221.683594 133.773438 221.683594 133.457031 C 221.683594 133.257812 221.554688 133.03125 221.296875 132.78125 C 221.046875 132.53125 220.613281 132.207031 219.988281 131.800781 C 219.164062 132.660156 218.289062 133.515625 217.371094 134.371094 C 216.460938 135.230469 215.546875 136.039062 214.636719 136.800781 C 213.730469 137.566406 212.871094 138.234375 212.054688 138.8125 C 211.972656 138.882812 211.867188 138.917969 211.738281 138.917969 C 211.589844 138.917969 211.460938 138.867188 211.351562 138.765625 C 211.25 138.664062 211.199219 138.539062 211.199219 138.378906 C 211.199219 138.191406 211.28125 138.046875 211.445312 137.933594 C 212.339844 137.304688 213.234375 136.621094 214.121094 135.878906 C 215.011719 135.128906 215.875 134.363281 216.714844 133.574219 C 217.5625 132.78125 218.363281 131.996094 219.113281 131.214844 C 218.417969 130.757812 217.9375 130.386719 217.675781 130.105469 C 217.410156 129.816406 217.277344 129.527344 217.277344 129.238281 C 217.277344 128.945312 217.398438 128.613281 217.640625 128.246094 C 217.878906 127.882812 218.199219 127.496094 218.597656 127.089844 C 218.996094 126.6875 219.441406 126.292969 219.929688 125.910156 C 220.425781 125.519531 220.9375 125.171875 221.460938 124.867188 C 221.992188 124.566406 222.496094 124.324219 222.980469 124.144531 C 223.464844 123.957031 223.882812 123.863281 224.242188 123.863281 C 224.53125 123.863281 224.757812 123.949219 224.921875 124.121094 C 225.085938 124.285156 225.167969 124.519531 225.167969 124.820312 C 225.167969 125.125 224.992188 125.578125 224.640625 126.175781 C 224.296875 126.769531 223.789062 127.476562 223.121094 128.292969 C 222.457031 129.109375 221.664062 130.019531 220.738281 131.015625 C 220.84375 131.128906 220.960938 131.234375 221.074219 131.34375 C 221.199219 131.445312 221.316406 131.542969 221.425781 131.636719 C 221.804688 131.972656 222.121094 132.277344 222.375 132.558594 C 222.628906 132.839844 222.757812 133.140625 222.757812 133.457031 C 222.757812 133.886719 222.59375 134.382812 222.269531 134.941406 C 221.941406 135.5 221.496094 136.101562 220.9375 136.753906 C 220.375 137.402344 219.746094 138.082031 219.054688 138.789062 C 218.359375 139.5 217.644531 140.210938 216.902344 140.925781 C 216.078125 141.746094 215.261719 142.5625 214.460938 143.371094 C 213.667969 144.179688 212.945312 144.953125 212.296875 145.695312 C 211.660156 146.445312 211.148438 147.132812 210.765625 147.765625 C 210.386719 148.402344 210.195312 148.960938 210.195312 149.449219 C 210.195312 149.757812 210.257812 149.976562 210.394531 150.101562 C 210.523438 150.226562 210.757812 150.289062 211.09375 150.289062 C 211.648438 150.289062 212.335938 150.148438 213.164062 149.867188 C 213.988281 149.585938 214.917969 149.195312 215.957031 148.699219 C 217 148.199219 218.105469 147.617188 219.277344 146.957031 C 220.445312 146.304688 221.640625 145.597656 222.863281 144.84375 C 224.09375 144.085938 225.320312 143.3125 226.535156 142.515625 C 227.75 141.714844 228.921875 140.925781 230.050781 140.15625 C 231.179688 139.378906 232.230469 138.636719 233.195312 137.933594 C 233.273438 137.863281 233.378906 137.828125 233.511719 137.828125 C 233.65625 137.828125 233.785156 137.886719 233.886719 137.992188 C 233.992188 138.097656 234.050781 138.222656 234.050781 138.367188 C 234.050781 138.554688 233.972656 138.699219 233.828125 138.800781 C 232.859375 139.5 231.804688 140.246094 230.660156 141.03125 C 229.515625 141.820312 228.324219 142.621094 227.082031 143.441406 C 225.851562 144.25 224.605469 145.035156 223.34375 145.800781 C 222.085938 146.574219 220.855469 147.292969 219.648438 147.964844 C 218.449219 148.632812 217.308594 149.21875 216.226562 149.726562 C 215.152344 150.242188 214.171875 150.640625 213.292969 150.933594 C 212.417969 151.21875 211.683594 151.363281 211.09375 151.363281 Z M 219.835938 130.421875 C 220.203125 130.039062 220.601562 129.609375 221.027344 129.121094 C 221.457031 128.632812 221.875 128.136719 222.292969 127.625 C 222.703125 127.121094 223.0625 126.65625 223.367188 126.234375 C 223.671875 125.808594 223.871094 125.476562 223.972656 125.242188 C 224.003906 125.148438 223.992188 125.085938 223.941406 125.042969 C 223.894531 125.007812 223.816406 124.996094 223.71875 125.007812 C 223.460938 125.0625 223.148438 125.183594 222.78125 125.371094 C 222.414062 125.550781 222.035156 125.773438 221.636719 126.039062 C 221.238281 126.304688 220.84375 126.585938 220.457031 126.890625 C 220.066406 127.1875 219.710938 127.488281 219.394531 127.789062 C 219.082031 128.089844 218.832031 128.363281 218.644531 128.621094 C 218.457031 128.871094 218.363281 129.074219 218.363281 129.238281 C 218.363281 129.355469 218.855469 129.75 219.835938 130.421875 Z M 219.835938 130.421875 " fill-opacity="1" fill-rule="nonzero"/><path fill="#ffffff" d="M 247.417969 137.828125 C 247.566406 137.828125 247.691406 137.886719 247.792969 137.992188 C 247.902344 138.097656 247.957031 138.222656 247.957031 138.367188 C 247.957031 138.554688 247.882812 138.699219 247.734375 138.800781 C 246.777344 139.5 245.761719 140.140625 244.695312 140.71875 C 243.628906 141.296875 242.5625 141.804688 241.503906 142.246094 C 240.445312 142.6875 239.441406 143.050781 238.492188 143.347656 C 237.546875 143.644531 236.707031 143.867188 235.964844 144.011719 C 235.222656 144.167969 234.644531 144.246094 234.222656 144.246094 C 233.171875 144.246094 232.355469 144.054688 231.769531 143.675781 C 231.1875 143.285156 230.894531 142.734375 230.894531 142.027344 C 230.894531 141.550781 231.019531 141.054688 231.265625 140.53125 C 231.511719 140 231.835938 139.484375 232.238281 138.976562 C 232.648438 138.46875 233.105469 138.011719 233.605469 137.597656 C 234.109375 137.183594 234.625 136.855469 235.148438 136.613281 C 235.667969 136.367188 236.167969 136.242188 236.644531 136.242188 C 237.054688 136.242188 237.390625 136.355469 237.648438 136.578125 C 237.90625 136.796875 238.035156 137.089844 238.035156 137.445312 C 238.035156 137.695312 237.945312 137.941406 237.765625 138.179688 C 237.59375 138.421875 237.359375 138.648438 237.066406 138.859375 C 236.765625 139.0625 236.449219 139.226562 236.105469 139.347656 C 235.761719 139.476562 235.417969 139.535156 235.066406 139.535156 C 234.378906 139.535156 233.828125 139.449219 233.40625 139.269531 C 232.953125 139.757812 232.601562 140.25 232.34375 140.742188 C 232.089844 141.226562 231.96875 141.652344 231.96875 142.027344 C 231.96875 142.792969 232.71875 143.171875 234.222656 143.171875 C 234.613281 143.171875 235.160156 143.101562 235.859375 142.960938 C 236.5625 142.816406 237.359375 142.597656 238.257812 142.316406 C 239.152344 142.03125 240.105469 141.675781 241.121094 141.253906 C 242.132812 140.828125 243.148438 140.335938 244.171875 139.78125 C 245.199219 139.230469 246.175781 138.613281 247.105469 137.933594 C 247.179688 137.863281 247.285156 137.828125 247.417969 137.828125 Z M 236.960938 137.445312 C 236.960938 137.398438 236.9375 137.367188 236.902344 137.351562 C 236.867188 137.328125 236.785156 137.316406 236.644531 137.316406 C 236.332031 137.316406 235.96875 137.414062 235.558594 137.609375 C 235.152344 137.796875 234.734375 138.0625 234.304688 138.414062 C 234.515625 138.445312 234.769531 138.460938 235.066406 138.460938 C 235.445312 138.460938 235.777344 138.398438 236.058594 138.273438 C 236.339844 138.152344 236.554688 138.011719 236.714844 137.851562 C 236.878906 137.691406 236.960938 137.554688 236.960938 137.445312 Z M 236.960938 137.445312 " fill-opacity="1" fill-rule="nonzero"/></svg>